# xmcd
# 
# Track frame offsets:
#     182
#     19222
#     35760
#     52097
#     69467
#     87597
#     101182
#     114212
#     130947
#     142692
#     157510
#     180347
#     196047
# 
# Disc length: 2873
# 
# Revision: 0
# Processed by: cddbd v1.5.2PL0 Copyright (c) Steve Scherf et al.
# Submitted via: fre:ac v1.0.17
# 
DISCID=a40b370d
DTITLE=Jackson Delta - Lookin' Back
DYEAR=2001
DGENRE=Blues
TTITLE0=Lookin' Back
TTITLE1=Fool in Love
TTITLE2=Goin' Back to Memphis
TTITLE3=My Mistake
TTITLE4=Honey, What's Wrong with You?
TTITLE5=My Ears Keep Hearing Voices
TTITLE6=Little Sister's Going to be Alright
TTITLE7=The Feel of Uncertainty
TTITLE8=Silly Rules
TTITLE9=Unpaid Bills Blues
TTITLE10=I Sleep with a Ghost
TTITLE11=Crazy (About You)
TTITLE12=Worried Life
EXTD=\nYEAR: 2001  ID3G:   0
EXTT0=
EXTT1=
EXTT2=
EXTT3=
EXTT4=
EXTT5=
EXTT6=
EXTT7=
EXTT8=
EXTT9=
EXTT10=
EXTT11=
EXTT12=
PLAYORDER=
